<svg width="28" height="38" viewBox="0 0 28 38" fill="none" xmlns="http://www.w3.org/2000/svg">
<path id="Vector" d="M14 0.778931C21.7283 0.787869 27.9908 6.85354 28 14.3381V14.339C27.9271 17.3899 27.1671 20.2527 25.8649 22.81L25.9194 22.6916C24.607 25.367 23.1268 27.6699 21.4157 29.7892L21.4795 29.707C19.5003 32.213 17.3979 34.4304 15.1087 36.4529L15.0678 36.4886L14 37.391L12.9337 36.487C10.6036 34.4288 8.50122 32.2114 6.61358 29.826L6.52193 29.7054C4.8746 27.6683 3.3945 25.3655 2.18224 22.9146L2.08213 22.69C0.834256 20.2516 0.0736803 17.3895 0.000442968 14.3627L0 14.3389C0.0092285 6.85354 6.27169 0.787762 13.9991 0.778931H14H14ZM14 33.1535C16.907 30.4007 24.7592 22.2333 24.7592 14.339C24.7592 8.58353 19.9422 3.91778 14 3.91778C8.05784 3.91778 3.24075 8.58357 3.24075 14.339C3.24075 22.2475 11.0833 30.4039 14 33.1535V33.1535ZM14 8.28091C17.4543 8.28091 20.2546 10.9932 20.2546 14.339C20.2546 17.6848 17.4543 20.3971 14 20.3971C10.5457 20.3971 7.74537 17.6848 7.74537 14.339C7.74906 10.9946 10.5471 8.28449 13.9996 8.28091H14ZM14 17.2581C15.6645 17.2581 17.0139 15.9512 17.0139 14.339C17.0139 12.7267 15.6645 11.4198 14 11.4198C12.3355 11.4198 10.9861 12.7267 10.9861 14.339C10.988 15.9505 12.3362 17.2563 13.9998 17.2581H14Z" fill="#D7AF06"/>
</svg>
