<svg width="36" height="37" viewBox="0 0 36 37" fill="none" xmlns="http://www.w3.org/2000/svg">
<path id="Vector" d="M24.7411 36.3731C19.7241 36.3731 13.4488 33.2172 8.36674 28.1385C4.97727 24.8782 2.35386 20.8569 0.777255 16.3524L0.712535 16.1401C-0.607579 11.8217 -0.0817281 8.21018 2.19325 5.96851L7.45011 0.757935L17.6684 10.8619L13.6506 14.8331C13.2523 15.2388 13.0066 15.793 13.0066 16.404C13.0066 17.0149 13.2523 17.5692 13.6512 17.9754L13.6507 17.9749L18.5756 22.8446C18.9858 23.2464 19.5505 23.4945 20.1738 23.4945C20.797 23.4945 21.3617 23.2464 21.7721 22.8445L25.7881 18.8735L36 28.9775L30.7034 34.1772C29.2411 35.5417 27.264 36.3805 25.0887 36.3805C24.9665 36.3805 24.8449 36.3779 24.7239 36.3726L24.7412 36.3732L24.7411 36.3731ZM7.45324 4.09443L3.87875 7.63996C2.25358 9.24063 1.9406 12.018 2.99388 15.463C4.51632 19.7951 6.93759 23.4867 10.0545 26.4726L10.0618 26.4796C14.7118 31.1279 20.3373 34.0199 24.7411 34.0199C24.8482 34.0269 24.9734 34.0309 25.0996 34.0309C26.618 34.0309 28.0003 33.454 29.0344 32.5098L29.0305 32.5134L32.6351 28.9742L25.7849 22.2052L23.4495 24.5129C22.6084 25.3385 21.4497 25.8487 20.1705 25.8487C18.8913 25.8487 17.7326 25.3385 16.8913 24.5126L11.9571 19.6368C11.1337 18.8044 10.6256 17.664 10.6256 16.4063C10.6256 15.1485 11.1337 14.0082 11.958 13.1749L14.2925 10.8665L7.45324 4.09443Z" fill="#D7AF06"/>
</svg>
