<svg width="32" height="33" viewBox="0 0 32 33" fill="none" xmlns="http://www.w3.org/2000/svg">
<path id="Vector" d="M4.51253 0.974487C4.19665 0.974487 3.9259 1.01366 3.65515 1.09201C1.89526 1.40541 0.496378 2.61982 0.135376 4.14762C0 4.38267 0 4.61772 0 4.89194V26.4379C0 29.6894 3.02339 32.3141 6.76879 32.3141H31.5877V28.3966H6.76879C5.50529 28.3966 4.51253 27.5348 4.51253 26.4379C4.51253 25.341 5.50529 24.4792 6.76879 24.4792H31.5877V2.93321C31.5877 1.83633 30.5949 0.974487 29.3314 0.974487H27.0752V12.7268L22.5626 8.80939L18.0501 12.7268V0.974487H4.51253Z" fill="#363636"/>
</svg>
